<?xml version="1.0" standalone="no"?>
<!DOCTYPE svg PUBLIC "-//W3C//DTD SVG 20010904//EN"
 "http://www.w3.org/TR/2001/REC-SVG-20010904/DTD/svg10.dtd">
<svg version="1.0" xmlns="http://www.w3.org/2000/svg"
 width="300.000000pt" height="300.000000pt" viewBox="0 0 300.000000 300.000000"
 preserveAspectRatio="xMidYMid meet">
<metadata>
Created by potrace 1.10, written by Peter Selinger 2001-2011
</metadata>
<g transform="translate(0.000000,300.000000) scale(0.100000,-0.100000)"
fill="#000000" stroke="none">
<path d="M1465 2571 c-167 -71 -1380 -599 -1407 -612 -48 -24 -65 -72 -45
-121 16 -37 20 -39 407 -206 l135 -58 6 -335 c4 -275 8 -341 21 -376 80 -205
320 -359 653 -419 70 -12 150 -18 265 -18 455 0 802 165 916 434 17 40 19 78
22 378 l3 332 39 20 c22 11 42 20 45 20 3 0 5 -232 5 -516 l0 -516 29 -29 c42
-42 99 -41 135 2 l26 31 0 557 0 557 38 14 c20 7 78 32 128 55 82 38 93 47
103 78 10 28 9 42 -2 70 -17 39 60 3 -872 407 -319 138 -591 253 -605 255 -14
3 -34 1 -45 -4z m296 -142 c129 -55 248 -106 264 -114 17 -7 228 -99 469 -204
242 -105 447 -198 458 -207 40 -37 17 -59 -123 -120 -57 -25 -114 -56 -126
-70 l-23 -25 0 -534 c0 -319 -4 -544 -10 -559 -14 -37 -58 -46 -82 -16 -17 21
-18 52 -18 520 0 467 -1 499 -18 520 -16 19 -24 22 -55 16 -20 -4 -49 -18 -64
-31 l-28 -23 -5 -334 -5 -333 -32 -67 c-111 -235 -442 -381 -863 -381 -366 0
-676 115 -820 305 -72 95 -73 105 -80 475 -5 316 -6 333 -25 352 -11 10 -125
64 -253 119 -129 56 -245 108 -258 117 -35 22 -40 43 -18 66 27 27 1412 627
1450 628 18 1 126 -40 265 -100z"/>
<path d="M1470 2413 c-46 -18 -1080 -468 -1111 -484 -21 -10 -40 -27 -43 -37
-15 -45 5 -59 199 -142 61 -26 298 -129 528 -228 229 -100 428 -184 442 -188
18 -4 96 25 297 111 463 199 491 214 467 257 -15 27 -56 35 -414 79 -207 25
-349 47 -362 55 -25 16 -30 53 -11 72 19 19 67 15 568 -48 261 -33 497 -60
523 -60 83 0 149 47 131 94 -9 22 -36 36 -382 185 -163 71 -407 176 -542 235
-240 104 -259 110 -290 99z m618 -285 l584 -253 -47 -20 -46 -21 -537 68
c-295 37 -545 67 -555 68 -10 0 -32 -13 -48 -29 -37 -38 -39 -88 -6 -127 23
-27 30 -28 363 -70 186 -24 360 -43 386 -44 51 0 71 -15 36 -25 -13 -4 -179
-75 -370 -157 l-347 -150 -586 253 c-431 187 -581 256 -568 262 220 97 1141
495 1148 496 6 1 273 -112 593 -251z"/>
<path d="M732 1497 c-21 -23 -22 -30 -22 -289 l0 -265 31 -61 c40 -82 110
-141 234 -202 174 -85 339 -116 580 -107 82 3 182 12 221 21 242 53 428 166
489 298 24 52 25 57 25 314 0 249 -1 263 -21 288 -11 14 -27 26 -34 26 -8 0
-171 -68 -362 -151 -191 -83 -359 -151 -373 -151 -20 1 -300 116 -456 187 -92
43 -267 115 -278 115 -7 0 -22 -10 -34 -23z m418 -182 c206 -90 327 -138 350
-138 23 0 152 51 390 155 l355 155 3 -270 c3 -314 2 -319 -96 -408 -287 -263
-1017 -263 -1304 0 -97 89 -98 93 -98 409 l0 271 43 -18 c23 -10 184 -81 357
-156z"/>
</g>
</svg>
